<?xml version="1.0" encoding="us-ascii" standalone="no"?><svg xmlns="http://www.w3.org/2000/svg" xmlns:xlink="http://www.w3.org/1999/xlink" contentStyleType="text/css" height="443px" preserveAspectRatio="none" style="width:453px;height:443px;background:#FFFFFF;" version="1.1" viewBox="0 0 453 443" width="453px" zoomAndPan="magnify"><defs/><g><text fill="#000000" font-family="sans-serif" font-size="14" font-weight="bold" lengthAdjust="spacing" textLength="201" x="125" y="27.9951">Creating a Schedule Flow</text><rect fill="#FFFFFF" height="129.5313" style="stroke:#181818;stroke-width:1.0;" width="10" x="219" y="215.125"/><line style="stroke:#181818;stroke-width:0.5;stroke-dasharray:5.0,5.0;" x1="94" x2="94" y1="118.5938" y2="362.6563"/><line style="stroke:#181818;stroke-width:0.5;stroke-dasharray:5.0,5.0;" x1="223.5" x2="223.5" y1="118.5938" y2="362.6563"/><line style="stroke:#181818;stroke-width:0.5;stroke-dasharray:5.0,5.0;" x1="407" x2="407" y1="118.5938" y2="362.6563"/><text fill="#000000" font-family="sans-serif" font-size="14" lengthAdjust="spacing" textLength="32" x="75" y="115.292">User</text><ellipse cx="94" cy="50.7969" fill="#E2E2F0" rx="8" ry="8" style="stroke:#181818;stroke-width:0.5;"/><path d="M94,58.7969 L94,85.7969 M81,66.7969 L107,66.7969 M94,85.7969 L81,100.7969 M94,85.7969 L107,100.7969 " fill="none" style="stroke:#181818;stroke-width:0.5;"/><text fill="#000000" font-family="sans-serif" font-size="14" lengthAdjust="spacing" textLength="32" x="75" y="374.6514">User</text><ellipse cx="94" cy="386.4531" fill="#E2E2F0" rx="8" ry="8" style="stroke:#181818;stroke-width:0.5;"/><path d="M94,394.4531 L94,421.4531 M81,402.4531 L107,402.4531 M94,421.4531 L81,436.4531 M94,421.4531 L107,436.4531 " fill="none" style="stroke:#181818;stroke-width:0.5;"/><rect fill="#E2E2F0" height="30.2969" rx="2.5" ry="2.5" style="stroke:#181818;stroke-width:0.5;" width="133" x="157.5" y="87.2969"/><text fill="#000000" font-family="sans-serif" font-size="14" lengthAdjust="spacing" textLength="119" x="164.5" y="107.292">Schedule Service</text><rect fill="#E2E2F0" height="30.2969" rx="2.5" ry="2.5" style="stroke:#181818;stroke-width:0.5;" width="133" x="157.5" y="361.6563"/><text fill="#000000" font-family="sans-serif" font-size="14" lengthAdjust="spacing" textLength="119" x="164.5" y="381.6514">Schedule Service</text><rect fill="#E2E2F0" height="30.2969" rx="2.5" ry="2.5" style="stroke:#181818;stroke-width:0.5;" width="80" x="367" y="87.2969"/><text fill="#000000" font-family="sans-serif" font-size="14" lengthAdjust="spacing" textLength="66" x="374" y="107.292">Database</text><rect fill="#E2E2F0" height="30.2969" rx="2.5" ry="2.5" style="stroke:#181818;stroke-width:0.5;" width="80" x="367" y="361.6563"/><text fill="#000000" font-family="sans-serif" font-size="14" lengthAdjust="spacing" textLength="66" x="374" y="381.6514">Database</text><rect fill="#FFFFFF" height="129.5313" style="stroke:#181818;stroke-width:1.0;" width="10" x="219" y="215.125"/><path d="M5,133.5938 L5,173.5938 L184,173.5938 L184,143.5938 L174,133.5938 L5,133.5938 " fill="#FEFFDD" style="stroke:#181818;stroke-width:0.5;"/><path d="M174,133.5938 L174,143.5938 L184,143.5938 L174,133.5938 " fill="#FEFFDD" style="stroke:#181818;stroke-width:0.5;"/><text fill="#000000" font-family="sans-serif" font-size="13" lengthAdjust="spacing" textLength="158" x="11" y="150.6606">In this example, the user</text><text fill="#000000" font-family="sans-serif" font-size="13" lengthAdjust="spacing" textLength="65" x="11" y="165.7935">must be a</text><text fill="#000000" font-family="sans-serif" font-size="13" font-weight="bold" lengthAdjust="spacing" textLength="48" x="80" y="165.7935">doctor</text><text fill="#000000" font-family="sans-serif" font-size="13" lengthAdjust="spacing" textLength="4" x="128" y="165.7935">.</text><polygon fill="#181818" points="207,211.125,217,215.125,207,219.125,211,215.125" style="stroke:#181818;stroke-width:1.0;"/><line style="stroke:#181818;stroke-width:1.0;" x1="94" x2="213" y1="215.125" y2="215.125"/><text fill="#000000" font-family="sans-serif" font-size="13" lengthAdjust="spacing" textLength="106" x="101" y="194.9263">POST /schedules</text><text fill="#000000" font-family="sans-serif" font-size="13" lengthAdjust="spacing" textLength="78" x="101" y="210.0591">(Bearer JWT)</text><line style="stroke:#181818;stroke-width:1.0;" x1="229" x2="271" y1="244.2578" y2="244.2578"/><line style="stroke:#181818;stroke-width:1.0;" x1="271" x2="271" y1="244.2578" y2="257.2578"/><line style="stroke:#181818;stroke-width:1.0;" x1="230" x2="271" y1="257.2578" y2="257.2578"/><polygon fill="#181818" points="240,253.2578,230,257.2578,240,261.2578,236,257.2578" style="stroke:#181818;stroke-width:1.0;"/><text fill="#000000" font-family="sans-serif" font-size="13" lengthAdjust="spacing" textLength="159" x="236" y="239.1919">Validate schedule details</text><polygon fill="#181818" points="395,282.3906,405,286.3906,395,290.3906,399,286.3906" style="stroke:#181818;stroke-width:1.0;"/><line style="stroke:#181818;stroke-width:1.0;" x1="229" x2="401" y1="286.3906" y2="286.3906"/><text fill="#000000" font-family="sans-serif" font-size="13" lengthAdjust="spacing" textLength="104" x="236" y="281.3247">Create schedule</text><polygon fill="#181818" points="240,311.5234,230,315.5234,240,319.5234,236,315.5234" style="stroke:#181818;stroke-width:1.0;"/><line style="stroke:#181818;stroke-width:1.0;stroke-dasharray:2.0,2.0;" x1="234" x2="406" y1="315.5234" y2="315.5234"/><text fill="#000000" font-family="sans-serif" font-size="13" lengthAdjust="spacing" textLength="51" x="246" y="310.4575">Created</text><polygon fill="#181818" points="105,340.6563,95,344.6563,105,348.6563,101,344.6563" style="stroke:#181818;stroke-width:1.0;"/><line style="stroke:#181818;stroke-width:1.0;stroke-dasharray:2.0,2.0;" x1="99" x2="223" y1="344.6563" y2="344.6563"/><text fill="#000000" font-family="sans-serif" font-size="13" lengthAdjust="spacing" textLength="79" x="111" y="339.5903">201 Created</text><!--SRC=[TL3BJiCm4BplLwnoWeYMnp473e0gmGMa5BWWeMsyefPSE_9k0f-FKpVbqVJcdPsPdR5QTOotaKcj_q32kbcpwHAsSE4JW1eD4OjduLWW2NRf0Ir5jOrjoIiMUq7DiRSDRsco0zybWtybTwIq8ibKini0V536q7FCL-uzwjeAyXTjMiTdQUAysNIYkEAKjYnD61AMvHpO6nmi00OIpguFKbJuz5WlyNp4vSsVt335n7vuNPvkszgUKeg3_F-1QViNSjRyrgDX9UjaKZysh_B__wXWtE1iyaoccmdJH1_ALtXrSRcd6JxUwni0]--></g></svg>