<?xml version="1.0" encoding="us-ascii" standalone="no"?><svg xmlns="http://www.w3.org/2000/svg" xmlns:xlink="http://www.w3.org/1999/xlink" contentStyleType="text/css" height="458px" preserveAspectRatio="none" style="width:604px;height:458px;background:#FFFFFF;" version="1.1" viewBox="0 0 604 458" width="604px" zoomAndPan="magnify"><defs/><g><text fill="#000000" font-family="sans-serif" font-size="14" font-weight="bold" lengthAdjust="spacing" textLength="117" x="242.5" y="27.9951">Excluir Agenda</text><rect fill="#FFFFFF" height="144.6641" style="stroke:#181818;stroke-width:1.0;" width="10" x="324" y="215.125"/><line style="stroke:#181818;stroke-width:0.5;stroke-dasharray:5.0,5.0;" x1="97" x2="97" y1="118.5938" y2="377.7891"/><line style="stroke:#181818;stroke-width:0.5;stroke-dasharray:5.0,5.0;" x1="328.5" x2="328.5" y1="118.5938" y2="377.7891"/><line style="stroke:#181818;stroke-width:0.5;stroke-dasharray:5.0,5.0;" x1="558" x2="558" y1="118.5938" y2="377.7891"/><text fill="#000000" font-family="sans-serif" font-size="14" lengthAdjust="spacing" textLength="32" x="78" y="115.292">User</text><ellipse cx="97" cy="50.7969" fill="#E2E2F0" rx="8" ry="8" style="stroke:#181818;stroke-width:0.5;"/><path d="M97,58.7969 L97,85.7969 M84,66.7969 L110,66.7969 M97,85.7969 L84,100.7969 M97,85.7969 L110,100.7969 " fill="none" style="stroke:#181818;stroke-width:0.5;"/><text fill="#000000" font-family="sans-serif" font-size="14" lengthAdjust="spacing" textLength="32" x="78" y="389.7842">User</text><ellipse cx="97" cy="401.5859" fill="#E2E2F0" rx="8" ry="8" style="stroke:#181818;stroke-width:0.5;"/><path d="M97,409.5859 L97,436.5859 M84,417.5859 L110,417.5859 M97,436.5859 L84,451.5859 M97,436.5859 L110,451.5859 " fill="none" style="stroke:#181818;stroke-width:0.5;"/><rect fill="#E2E2F0" height="30.2969" rx="2.5" ry="2.5" style="stroke:#181818;stroke-width:0.5;" width="133" x="262.5" y="87.2969"/><text fill="#000000" font-family="sans-serif" font-size="14" lengthAdjust="spacing" textLength="119" x="269.5" y="107.292">Schedule Service</text><rect fill="#E2E2F0" height="30.2969" rx="2.5" ry="2.5" style="stroke:#181818;stroke-width:0.5;" width="133" x="262.5" y="376.7891"/><text fill="#000000" font-family="sans-serif" font-size="14" lengthAdjust="spacing" textLength="119" x="269.5" y="396.7842">Schedule Service</text><rect fill="#E2E2F0" height="30.2969" rx="2.5" ry="2.5" style="stroke:#181818;stroke-width:0.5;" width="80" x="518" y="87.2969"/><text fill="#000000" font-family="sans-serif" font-size="14" lengthAdjust="spacing" textLength="66" x="525" y="107.292">Database</text><rect fill="#E2E2F0" height="30.2969" rx="2.5" ry="2.5" style="stroke:#181818;stroke-width:0.5;" width="80" x="518" y="376.7891"/><text fill="#000000" font-family="sans-serif" font-size="14" lengthAdjust="spacing" textLength="66" x="525" y="396.7842">Database</text><rect fill="#FFFFFF" height="144.6641" style="stroke:#181818;stroke-width:1.0;" width="10" x="324" y="215.125"/><path d="M5,133.5938 L5,173.5938 L190,173.5938 L190,143.5938 L180,133.5938 L5,133.5938 " fill="#FEFFDD" style="stroke:#181818;stroke-width:0.5;"/><path d="M180,133.5938 L180,143.5938 L190,143.5938 L180,133.5938 " fill="#FEFFDD" style="stroke:#181818;stroke-width:0.5;"/><text fill="#000000" font-family="sans-serif" font-size="13" lengthAdjust="spacing" textLength="164" x="11" y="150.6606">Neste exemplo, o usu&#225;rio</text><text fill="#000000" font-family="sans-serif" font-size="13" lengthAdjust="spacing" textLength="80" x="11" y="165.7935">deve ser um</text><text fill="#000000" font-family="sans-serif" font-size="13" font-weight="bold" lengthAdjust="spacing" textLength="54" x="95" y="165.7935">m&#233;dico</text><text fill="#000000" font-family="sans-serif" font-size="13" lengthAdjust="spacing" textLength="4" x="149" y="165.7935">.</text><polygon fill="#181818" points="312,211.125,322,215.125,312,219.125,316,215.125" style="stroke:#181818;stroke-width:1.0;"/><line style="stroke:#181818;stroke-width:1.0;" x1="97" x2="318" y1="215.125" y2="215.125"/><text fill="#000000" font-family="sans-serif" font-size="13" lengthAdjust="spacing" textLength="208" x="104" y="194.9263">DELETE /schedules/{scheduleId}</text><text fill="#000000" font-family="sans-serif" font-size="13" lengthAdjust="spacing" textLength="78" x="104" y="210.0591">(Bearer JWT)</text><line style="stroke:#181818;stroke-width:1.0;" x1="334" x2="376" y1="259.3906" y2="259.3906"/><line style="stroke:#181818;stroke-width:1.0;" x1="376" x2="376" y1="259.3906" y2="272.3906"/><line style="stroke:#181818;stroke-width:1.0;" x1="335" x2="376" y1="272.3906" y2="272.3906"/><polygon fill="#181818" points="345,268.3906,335,272.3906,345,276.3906,341,272.3906" style="stroke:#181818;stroke-width:1.0;"/><text fill="#000000" font-family="sans-serif" font-size="13" lengthAdjust="spacing" textLength="195" x="341" y="239.1919">Verificar se a agenda n&#227;o est&#225;</text><text fill="#000000" font-family="sans-serif" font-size="13" lengthAdjust="spacing" textLength="205" x="341" y="254.3247">reservada por nenhum paciente</text><polygon fill="#181818" points="546,297.5234,556,301.5234,546,305.5234,550,301.5234" style="stroke:#181818;stroke-width:1.0;"/><line style="stroke:#181818;stroke-width:1.0;" x1="334" x2="552" y1="301.5234" y2="301.5234"/><text fill="#000000" font-family="sans-serif" font-size="13" lengthAdjust="spacing" textLength="93" x="341" y="296.4575">Excluir agenda</text><polygon fill="#181818" points="345,326.6563,335,330.6563,345,334.6563,341,330.6563" style="stroke:#181818;stroke-width:1.0;"/><line style="stroke:#181818;stroke-width:1.0;stroke-dasharray:2.0,2.0;" x1="339" x2="557" y1="330.6563" y2="330.6563"/><text fill="#000000" font-family="sans-serif" font-size="13" lengthAdjust="spacing" textLength="52" x="351" y="325.5903">Exclu&#237;do</text><polygon fill="#181818" points="108,355.7891,98,359.7891,108,363.7891,104,359.7891" style="stroke:#181818;stroke-width:1.0;"/><line style="stroke:#181818;stroke-width:1.0;stroke-dasharray:2.0,2.0;" x1="102" x2="328" y1="359.7891" y2="359.7891"/><text fill="#000000" font-family="sans-serif" font-size="13" lengthAdjust="spacing" textLength="101" x="114" y="354.7231">204 No Content</text><!--SRC=[TL6nJiCm4Dtz5QTC456A45C69A0PGAXB2ooLqDK-gAN4ZcmdgeJuc8g9WQ_8Zt5E6YHes7pltjrxznnqA0ZohIngxU3gbOn28L06wo1vyEGIG0yrFqI5BcYfApG1aeNSaAfvT46kqP8wcj-3pxu7Vu_CCE0QVKzL-q88OmE1RSZrAdFoNDEMoggm9s0PhTkTqrOeQWXyv9MGfcNxgRIqQNegs3F4BKB43J2vF32ImIo_pvSvJ8UEdxuDprlrlZ97ruIEX- -UbiVT_Rf1zd5mqLzWNEsHd7xH4Xtx1GJiOWNJVbZWyzhToZYAP6IqugGDcGrVLQ7KPCAuof1OzlDR_LenD60owgLZjr_AZcpbWHXP1kTd5p2tS6DPtGIE-ly4lW40]--></g></svg>