<?xml version="1.0" encoding="us-ascii" standalone="no"?><svg xmlns="http://www.w3.org/2000/svg" xmlns:xlink="http://www.w3.org/1999/xlink" contentStyleType="text/css" height="458px" preserveAspectRatio="none" style="width:547px;height:458px;background:#FFFFFF;" version="1.1" viewBox="0 0 547 458" width="547px" zoomAndPan="magnify"><defs/><g><text fill="#000000" font-family="sans-serif" font-size="14" font-weight="bold" lengthAdjust="spacing" textLength="199" x="173" y="27.9951">Deleting a Schedule Flow</text><rect fill="#FFFFFF" height="144.6641" style="stroke:#181818;stroke-width:1.0;" width="10" x="321" y="215.125"/><line style="stroke:#181818;stroke-width:0.5;stroke-dasharray:5.0,5.0;" x1="94" x2="94" y1="118.5938" y2="377.7891"/><line style="stroke:#181818;stroke-width:0.5;stroke-dasharray:5.0,5.0;" x1="325.5" x2="325.5" y1="118.5938" y2="377.7891"/><line style="stroke:#181818;stroke-width:0.5;stroke-dasharray:5.0,5.0;" x1="501" x2="501" y1="118.5938" y2="377.7891"/><text fill="#000000" font-family="sans-serif" font-size="14" lengthAdjust="spacing" textLength="32" x="75" y="115.292">User</text><ellipse cx="94" cy="50.7969" fill="#E2E2F0" rx="8" ry="8" style="stroke:#181818;stroke-width:0.5;"/><path d="M94,58.7969 L94,85.7969 M81,66.7969 L107,66.7969 M94,85.7969 L81,100.7969 M94,85.7969 L107,100.7969 " fill="none" style="stroke:#181818;stroke-width:0.5;"/><text fill="#000000" font-family="sans-serif" font-size="14" lengthAdjust="spacing" textLength="32" x="75" y="389.7842">User</text><ellipse cx="94" cy="401.5859" fill="#E2E2F0" rx="8" ry="8" style="stroke:#181818;stroke-width:0.5;"/><path d="M94,409.5859 L94,436.5859 M81,417.5859 L107,417.5859 M94,436.5859 L81,451.5859 M94,436.5859 L107,451.5859 " fill="none" style="stroke:#181818;stroke-width:0.5;"/><rect fill="#E2E2F0" height="30.2969" rx="2.5" ry="2.5" style="stroke:#181818;stroke-width:0.5;" width="133" x="259.5" y="87.2969"/><text fill="#000000" font-family="sans-serif" font-size="14" lengthAdjust="spacing" textLength="119" x="266.5" y="107.292">Schedule Service</text><rect fill="#E2E2F0" height="30.2969" rx="2.5" ry="2.5" style="stroke:#181818;stroke-width:0.5;" width="133" x="259.5" y="376.7891"/><text fill="#000000" font-family="sans-serif" font-size="14" lengthAdjust="spacing" textLength="119" x="266.5" y="396.7842">Schedule Service</text><rect fill="#E2E2F0" height="30.2969" rx="2.5" ry="2.5" style="stroke:#181818;stroke-width:0.5;" width="80" x="461" y="87.2969"/><text fill="#000000" font-family="sans-serif" font-size="14" lengthAdjust="spacing" textLength="66" x="468" y="107.292">Database</text><rect fill="#E2E2F0" height="30.2969" rx="2.5" ry="2.5" style="stroke:#181818;stroke-width:0.5;" width="80" x="461" y="376.7891"/><text fill="#000000" font-family="sans-serif" font-size="14" lengthAdjust="spacing" textLength="66" x="468" y="396.7842">Database</text><rect fill="#FFFFFF" height="144.6641" style="stroke:#181818;stroke-width:1.0;" width="10" x="321" y="215.125"/><path d="M5,133.5938 L5,173.5938 L184,173.5938 L184,143.5938 L174,133.5938 L5,133.5938 " fill="#FEFFDD" style="stroke:#181818;stroke-width:0.5;"/><path d="M174,133.5938 L174,143.5938 L184,143.5938 L174,133.5938 " fill="#FEFFDD" style="stroke:#181818;stroke-width:0.5;"/><text fill="#000000" font-family="sans-serif" font-size="13" lengthAdjust="spacing" textLength="158" x="11" y="150.6606">In this example, the user</text><text fill="#000000" font-family="sans-serif" font-size="13" lengthAdjust="spacing" textLength="65" x="11" y="165.7935">must be a</text><text fill="#000000" font-family="sans-serif" font-size="13" font-weight="bold" lengthAdjust="spacing" textLength="48" x="80" y="165.7935">doctor</text><text fill="#000000" font-family="sans-serif" font-size="13" lengthAdjust="spacing" textLength="4" x="128" y="165.7935">.</text><polygon fill="#181818" points="309,211.125,319,215.125,309,219.125,313,215.125" style="stroke:#181818;stroke-width:1.0;"/><line style="stroke:#181818;stroke-width:1.0;" x1="94" x2="315" y1="215.125" y2="215.125"/><text fill="#000000" font-family="sans-serif" font-size="13" lengthAdjust="spacing" textLength="208" x="101" y="194.9263">DELETE /schedules/{scheduleId}</text><text fill="#000000" font-family="sans-serif" font-size="13" lengthAdjust="spacing" textLength="78" x="101" y="210.0591">(Bearer JWT)</text><line style="stroke:#181818;stroke-width:1.0;" x1="331" x2="373" y1="259.3906" y2="259.3906"/><line style="stroke:#181818;stroke-width:1.0;" x1="373" x2="373" y1="259.3906" y2="272.3906"/><line style="stroke:#181818;stroke-width:1.0;" x1="332" x2="373" y1="272.3906" y2="272.3906"/><polygon fill="#181818" points="342,268.3906,332,272.3906,342,276.3906,338,272.3906" style="stroke:#181818;stroke-width:1.0;"/><text fill="#000000" font-family="sans-serif" font-size="13" lengthAdjust="spacing" textLength="150" x="338" y="239.1919">Check if schedule is not</text><text fill="#000000" font-family="sans-serif" font-size="13" lengthAdjust="spacing" textLength="151" x="338" y="254.3247">reserved by any patient</text><polygon fill="#181818" points="489,297.5234,499,301.5234,489,305.5234,493,301.5234" style="stroke:#181818;stroke-width:1.0;"/><line style="stroke:#181818;stroke-width:1.0;" x1="331" x2="495" y1="301.5234" y2="301.5234"/><text fill="#000000" font-family="sans-serif" font-size="13" lengthAdjust="spacing" textLength="103" x="338" y="296.4575">Delete schedule</text><polygon fill="#181818" points="342,326.6563,332,330.6563,342,334.6563,338,330.6563" style="stroke:#181818;stroke-width:1.0;"/><line style="stroke:#181818;stroke-width:1.0;stroke-dasharray:2.0,2.0;" x1="336" x2="500" y1="330.6563" y2="330.6563"/><text fill="#000000" font-family="sans-serif" font-size="13" lengthAdjust="spacing" textLength="50" x="348" y="325.5903">Deleted</text><polygon fill="#181818" points="105,355.7891,95,359.7891,105,363.7891,101,359.7891" style="stroke:#181818;stroke-width:1.0;"/><line style="stroke:#181818;stroke-width:1.0;stroke-dasharray:2.0,2.0;" x1="99" x2="325" y1="359.7891" y2="359.7891"/><text fill="#000000" font-family="sans-serif" font-size="13" lengthAdjust="spacing" textLength="101" x="111" y="354.7231">204 No Content</text><!--SRC=[TL51JiCm4Bpx5QES8A8K8KuvSA0fKX7YqY8kbT0cNgX5QaVsfb0X_exJD4NGSFFEpExEhCL8nSYvOZ7s5OHvkMBTHEosSkzAKIdE8taCx1DGG1CVgYOlfZGrMK5oQ9YptvYITxAm1vz31_vkoKceeD19zRvGoZfXk0txRilCGbOcW3zeNLTy5Ylkc7KJ10L7jscgNUimJSyLMursX5Aj2AFh8nSPykdzT375k6V2-BD_plJNqfxSCFdOVFUqEDs5DnkAfexY_0M6jqrMNBx1l1men3ZHuj9wRaMiKMn1TekQnB2LmRdzWRBkctxSg9x1Q3ZiJgu7XaPvUwCCbnTNU72OE2ljUit_H_u6]--></g></svg>