<?xml version="1.0" encoding="us-ascii" standalone="no"?><svg xmlns="http://www.w3.org/2000/svg" xmlns:xlink="http://www.w3.org/1999/xlink" contentStyleType="text/css" height="443px" preserveAspectRatio="none" style="width:525px;height:443px;background:#FFFFFF;" version="1.1" viewBox="0 0 525 443" width="525px" zoomAndPan="magnify"><defs/><g><text fill="#000000" font-family="sans-serif" font-size="14" font-weight="bold" lengthAdjust="spacing" textLength="192" x="165.5" y="27.9951">Getting a Schedule Flow</text><rect fill="#FFFFFF" height="129.5313" style="stroke:#181818;stroke-width:1.0;" width="10" x="298" y="215.125"/><line style="stroke:#181818;stroke-width:0.5;stroke-dasharray:5.0,5.0;" x1="94" x2="94" y1="118.5938" y2="362.6563"/><line style="stroke:#181818;stroke-width:0.5;stroke-dasharray:5.0,5.0;" x1="302.5" x2="302.5" y1="118.5938" y2="362.6563"/><line style="stroke:#181818;stroke-width:0.5;stroke-dasharray:5.0,5.0;" x1="479" x2="479" y1="118.5938" y2="362.6563"/><text fill="#000000" font-family="sans-serif" font-size="14" lengthAdjust="spacing" textLength="32" x="75" y="115.292">User</text><ellipse cx="94" cy="50.7969" fill="#E2E2F0" rx="8" ry="8" style="stroke:#181818;stroke-width:0.5;"/><path d="M94,58.7969 L94,85.7969 M81,66.7969 L107,66.7969 M94,85.7969 L81,100.7969 M94,85.7969 L107,100.7969 " fill="none" style="stroke:#181818;stroke-width:0.5;"/><text fill="#000000" font-family="sans-serif" font-size="14" lengthAdjust="spacing" textLength="32" x="75" y="374.6514">User</text><ellipse cx="94" cy="386.4531" fill="#E2E2F0" rx="8" ry="8" style="stroke:#181818;stroke-width:0.5;"/><path d="M94,394.4531 L94,421.4531 M81,402.4531 L107,402.4531 M94,421.4531 L81,436.4531 M94,421.4531 L107,436.4531 " fill="none" style="stroke:#181818;stroke-width:0.5;"/><rect fill="#E2E2F0" height="30.2969" rx="2.5" ry="2.5" style="stroke:#181818;stroke-width:0.5;" width="133" x="236.5" y="87.2969"/><text fill="#000000" font-family="sans-serif" font-size="14" lengthAdjust="spacing" textLength="119" x="243.5" y="107.292">Schedule Service</text><rect fill="#E2E2F0" height="30.2969" rx="2.5" ry="2.5" style="stroke:#181818;stroke-width:0.5;" width="133" x="236.5" y="361.6563"/><text fill="#000000" font-family="sans-serif" font-size="14" lengthAdjust="spacing" textLength="119" x="243.5" y="381.6514">Schedule Service</text><rect fill="#E2E2F0" height="30.2969" rx="2.5" ry="2.5" style="stroke:#181818;stroke-width:0.5;" width="80" x="439" y="87.2969"/><text fill="#000000" font-family="sans-serif" font-size="14" lengthAdjust="spacing" textLength="66" x="446" y="107.292">Database</text><rect fill="#E2E2F0" height="30.2969" rx="2.5" ry="2.5" style="stroke:#181818;stroke-width:0.5;" width="80" x="439" y="361.6563"/><text fill="#000000" font-family="sans-serif" font-size="14" lengthAdjust="spacing" textLength="66" x="446" y="381.6514">Database</text><rect fill="#FFFFFF" height="129.5313" style="stroke:#181818;stroke-width:1.0;" width="10" x="298" y="215.125"/><path d="M5,133.5938 L5,173.5938 L184,173.5938 L184,143.5938 L174,133.5938 L5,133.5938 " fill="#FEFFDD" style="stroke:#181818;stroke-width:0.5;"/><path d="M174,133.5938 L174,143.5938 L184,143.5938 L174,133.5938 " fill="#FEFFDD" style="stroke:#181818;stroke-width:0.5;"/><text fill="#000000" font-family="sans-serif" font-size="13" lengthAdjust="spacing" textLength="158" x="11" y="150.6606">In this example, the user</text><text fill="#000000" font-family="sans-serif" font-size="13" lengthAdjust="spacing" textLength="65" x="11" y="165.7935">must be a</text><text fill="#000000" font-family="sans-serif" font-size="13" font-weight="bold" lengthAdjust="spacing" textLength="48" x="80" y="165.7935">doctor</text><text fill="#000000" font-family="sans-serif" font-size="13" lengthAdjust="spacing" textLength="4" x="128" y="165.7935">.</text><polygon fill="#181818" points="286,211.125,296,215.125,286,219.125,290,215.125" style="stroke:#181818;stroke-width:1.0;"/><line style="stroke:#181818;stroke-width:1.0;" x1="94" x2="292" y1="215.125" y2="215.125"/><text fill="#000000" font-family="sans-serif" font-size="13" lengthAdjust="spacing" textLength="185" x="101" y="194.9263">GET /schedules/{scheduleId}</text><text fill="#000000" font-family="sans-serif" font-size="13" lengthAdjust="spacing" textLength="78" x="101" y="210.0591">(Bearer JWT)</text><line style="stroke:#181818;stroke-width:1.0;" x1="308" x2="350" y1="244.2578" y2="244.2578"/><line style="stroke:#181818;stroke-width:1.0;" x1="350" x2="350" y1="244.2578" y2="257.2578"/><line style="stroke:#181818;stroke-width:1.0;" x1="309" x2="350" y1="257.2578" y2="257.2578"/><polygon fill="#181818" points="319,253.2578,309,257.2578,319,261.2578,315,257.2578" style="stroke:#181818;stroke-width:1.0;"/><text fill="#000000" font-family="sans-serif" font-size="13" lengthAdjust="spacing" textLength="152" x="315" y="239.1919">Check if schedule exists</text><polygon fill="#181818" points="467,282.3906,477,286.3906,467,290.3906,471,286.3906" style="stroke:#181818;stroke-width:1.0;"/><line style="stroke:#181818;stroke-width:1.0;" x1="308" x2="473" y1="286.3906" y2="286.3906"/><text fill="#000000" font-family="sans-serif" font-size="13" lengthAdjust="spacing" textLength="84" x="315" y="281.3247">Get schedule</text><polygon fill="#181818" points="319,311.5234,309,315.5234,319,319.5234,315,315.5234" style="stroke:#181818;stroke-width:1.0;"/><line style="stroke:#181818;stroke-width:1.0;stroke-dasharray:2.0,2.0;" x1="313" x2="478" y1="315.5234" y2="315.5234"/><text fill="#000000" font-family="sans-serif" font-size="13" lengthAdjust="spacing" textLength="59" x="325" y="310.4575">Schedule</text><polygon fill="#181818" points="105,340.6563,95,344.6563,105,348.6563,101,344.6563" style="stroke:#181818;stroke-width:1.0;"/><line style="stroke:#181818;stroke-width:1.0;stroke-dasharray:2.0,2.0;" x1="99" x2="302" y1="344.6563" y2="344.6563"/><text fill="#000000" font-family="sans-serif" font-size="13" lengthAdjust="spacing" textLength="46" x="111" y="339.5903">200 OK</text><!--SRC=[TL71JiCm3BtxAwoUe69iujW31s1CWmE73N51GbvZreWkgHAt827-dMHTAh6LM_pydlsU8rfgnWMBQBD5mbLPiMe3T5_RJm0gnJhCdZsx3CbZ6nxGa1DTweQCO3O8LkmwNVAUvW_Wc-_1lv8x4jgGxwdgK00OAuosOzTlMHgKIdlaBzerDL-4YllEhlM26mvkyrpPw33FBu6DmZW2899mSdtYei35V8tJ1FlfTtekrS-hERjXSa7vyB8-toVN7GL79rcEWV5LjnMN7wZVXrO8ehtuKNawGX5_Ob10Wd4okYATVcHauCSh57Wrc-7J8oZ-Fyyl]--></g></svg>