<?xml version="1.0" encoding="us-ascii" standalone="no"?><svg xmlns="http://www.w3.org/2000/svg" xmlns:xlink="http://www.w3.org/1999/xlink" contentStyleType="text/css" height="443px" preserveAspectRatio="none" style="width:463px;height:443px;background:#FFFFFF;" version="1.1" viewBox="0 0 463 443" width="463px" zoomAndPan="magnify"><defs/><g><text fill="#000000" font-family="sans-serif" font-size="14" font-weight="bold" lengthAdjust="spacing" textLength="134" x="163.5" y="27.9951">Atualizar Agenda</text><rect fill="#FFFFFF" height="129.5313" style="stroke:#181818;stroke-width:1.0;" width="10" x="213" y="215.125"/><line style="stroke:#181818;stroke-width:0.5;stroke-dasharray:5.0,5.0;" x1="97" x2="97" y1="118.5938" y2="362.6563"/><line style="stroke:#181818;stroke-width:0.5;stroke-dasharray:5.0,5.0;" x1="217.5" x2="217.5" y1="118.5938" y2="362.6563"/><line style="stroke:#181818;stroke-width:0.5;stroke-dasharray:5.0,5.0;" x1="417" x2="417" y1="118.5938" y2="362.6563"/><text fill="#000000" font-family="sans-serif" font-size="14" lengthAdjust="spacing" textLength="32" x="78" y="115.292">User</text><ellipse cx="97" cy="50.7969" fill="#E2E2F0" rx="8" ry="8" style="stroke:#181818;stroke-width:0.5;"/><path d="M97,58.7969 L97,85.7969 M84,66.7969 L110,66.7969 M97,85.7969 L84,100.7969 M97,85.7969 L110,100.7969 " fill="none" style="stroke:#181818;stroke-width:0.5;"/><text fill="#000000" font-family="sans-serif" font-size="14" lengthAdjust="spacing" textLength="32" x="78" y="374.6514">User</text><ellipse cx="97" cy="386.4531" fill="#E2E2F0" rx="8" ry="8" style="stroke:#181818;stroke-width:0.5;"/><path d="M97,394.4531 L97,421.4531 M84,402.4531 L110,402.4531 M97,421.4531 L84,436.4531 M97,421.4531 L110,436.4531 " fill="none" style="stroke:#181818;stroke-width:0.5;"/><rect fill="#E2E2F0" height="30.2969" rx="2.5" ry="2.5" style="stroke:#181818;stroke-width:0.5;" width="133" x="151.5" y="87.2969"/><text fill="#000000" font-family="sans-serif" font-size="14" lengthAdjust="spacing" textLength="119" x="158.5" y="107.292">Schedule Service</text><rect fill="#E2E2F0" height="30.2969" rx="2.5" ry="2.5" style="stroke:#181818;stroke-width:0.5;" width="133" x="151.5" y="361.6563"/><text fill="#000000" font-family="sans-serif" font-size="14" lengthAdjust="spacing" textLength="119" x="158.5" y="381.6514">Schedule Service</text><rect fill="#E2E2F0" height="30.2969" rx="2.5" ry="2.5" style="stroke:#181818;stroke-width:0.5;" width="80" x="377" y="87.2969"/><text fill="#000000" font-family="sans-serif" font-size="14" lengthAdjust="spacing" textLength="66" x="384" y="107.292">Database</text><rect fill="#E2E2F0" height="30.2969" rx="2.5" ry="2.5" style="stroke:#181818;stroke-width:0.5;" width="80" x="377" y="361.6563"/><text fill="#000000" font-family="sans-serif" font-size="14" lengthAdjust="spacing" textLength="66" x="384" y="381.6514">Database</text><rect fill="#FFFFFF" height="129.5313" style="stroke:#181818;stroke-width:1.0;" width="10" x="213" y="215.125"/><path d="M5,133.5938 L5,173.5938 L190,173.5938 L190,143.5938 L180,133.5938 L5,133.5938 " fill="#FEFFDD" style="stroke:#181818;stroke-width:0.5;"/><path d="M180,133.5938 L180,143.5938 L190,143.5938 L180,133.5938 " fill="#FEFFDD" style="stroke:#181818;stroke-width:0.5;"/><text fill="#000000" font-family="sans-serif" font-size="13" lengthAdjust="spacing" textLength="164" x="11" y="150.6606">Neste exemplo, o usu&#225;rio</text><text fill="#000000" font-family="sans-serif" font-size="13" lengthAdjust="spacing" textLength="80" x="11" y="165.7935">deve ser um</text><text fill="#000000" font-family="sans-serif" font-size="13" font-weight="bold" lengthAdjust="spacing" textLength="54" x="95" y="165.7935">m&#233;dico</text><text fill="#000000" font-family="sans-serif" font-size="13" lengthAdjust="spacing" textLength="4" x="149" y="165.7935">.</text><polygon fill="#181818" points="201,211.125,211,215.125,201,219.125,205,215.125" style="stroke:#181818;stroke-width:1.0;"/><line style="stroke:#181818;stroke-width:1.0;" x1="97" x2="207" y1="215.125" y2="215.125"/><text fill="#000000" font-family="sans-serif" font-size="13" lengthAdjust="spacing" textLength="97" x="104" y="194.9263">PUT /schedules</text><text fill="#000000" font-family="sans-serif" font-size="13" lengthAdjust="spacing" textLength="78" x="104" y="210.0591">(Bearer JWT)</text><line style="stroke:#181818;stroke-width:1.0;" x1="223" x2="265" y1="244.2578" y2="244.2578"/><line style="stroke:#181818;stroke-width:1.0;" x1="265" x2="265" y1="244.2578" y2="257.2578"/><line style="stroke:#181818;stroke-width:1.0;" x1="224" x2="265" y1="257.2578" y2="257.2578"/><polygon fill="#181818" points="234,253.2578,224,257.2578,234,261.2578,230,257.2578" style="stroke:#181818;stroke-width:1.0;"/><text fill="#000000" font-family="sans-serif" font-size="13" lengthAdjust="spacing" textLength="175" x="230" y="239.1919">Validar detalhes da agenda</text><polygon fill="#181818" points="405,282.3906,415,286.3906,405,290.3906,409,286.3906" style="stroke:#181818;stroke-width:1.0;"/><line style="stroke:#181818;stroke-width:1.0;" x1="223" x2="411" y1="286.3906" y2="286.3906"/><text fill="#000000" font-family="sans-serif" font-size="13" lengthAdjust="spacing" textLength="120" x="230" y="281.3247">Atualizar a agenda</text><polygon fill="#181818" points="234,311.5234,224,315.5234,234,319.5234,230,315.5234" style="stroke:#181818;stroke-width:1.0;"/><line style="stroke:#181818;stroke-width:1.0;stroke-dasharray:2.0,2.0;" x1="228" x2="416" y1="315.5234" y2="315.5234"/><text fill="#000000" font-family="sans-serif" font-size="13" lengthAdjust="spacing" textLength="67" x="240" y="310.4575">Atualizado</text><polygon fill="#181818" points="108,340.6563,98,344.6563,108,348.6563,104,344.6563" style="stroke:#181818;stroke-width:1.0;"/><line style="stroke:#181818;stroke-width:1.0;stroke-dasharray:2.0,2.0;" x1="102" x2="217" y1="344.6563" y2="344.6563"/><text fill="#000000" font-family="sans-serif" font-size="13" lengthAdjust="spacing" textLength="46" x="114" y="339.5903">200 OK</text><!--SRC=[TL31IiD04BtFLmmvsM2rUCn1g7XIKA6jNWGPTmUxa6J3xYGK_yQZtz4VSxPfnBRnjlFslJVpdZWf6UVIKka-AU3yWsjB06J41ynMaKE65B7L1pGKn1dNK2sOBSoQRQlY1OVE6TxHuXvyYpruABabeNUAFTNk1u3Q2wFlEFHR7ZZgp1kkcjAVerUqtNu5vy5onnWJhy8yhxRVrXcVvnUWDsDo0KWEEBq-EQJ0fzKIBmSuljPdDqn1oNSloyakh-j8zvuaE0R6tP-rFwlzMHOgrvpY8VLTZXaCuOi_rVyAXa-SZguQ5DQFMAiYLL3WrMo6Z_TQsV_9VW00]--></g></svg>